<?xml version="1.0" encoding="iso-8859-1"?>
<!-- Generator: Adobe Illustrator 16.0.0, SVG Export Plug-In . SVG Version: 6.00 Build 0)  -->
<!DOCTYPE svg PUBLIC "-//W3C//DTD SVG 1.1//EN" "http://www.w3.org/Graphics/SVG/1.1/DTD/svg11.dtd">
<svg version="1.1" id="Capa_1" xmlns="http://www.w3.org/2000/svg" xmlns:xlink="http://www.w3.org/1999/xlink" x="0px" y="0px"
	 width="452.747px" height="452.747px" viewBox="0 0 452.747 452.747" style="enable-background:new 0 0 452.747 452.747;"
	 xml:space="preserve">
<g>
	<g>
		<path d="M343.766,183.788c-8.97,0-16.249,7.286-16.249,16.249v59.959c-14.008-74.525-13.45-152.414,3.362-225.815
			c1.116-6.165-1.686-12.329-7.849-15.13C291.654,6.723,259.152,0,226.094,0c-33.06,0-65.56,6.723-96.378,19.051
			c-6.161,2.239-8.964,8.965-7.844,15.13c16.248,73.962,17.371,151.848,3.361,225.815v-59.397c0-8.967-7.283-16.25-16.249-16.25
			c-8.966,0-16.249,7.284-16.249,16.25v98.057c0,8.969,7.282,16.248,16.249,16.248h234.781c8.966,0,16.244-7.279,16.244-16.248
			v-98.057C360.01,191.074,352.732,183.788,343.766,183.788z"/>
		<path d="M346.002,402.319c0-5.605-2.802-11.209-7.843-14.011l-103.661-66.117c-5.04-2.802-11.768-2.802-17.371,0.558l-103.1,65.56
			c-5.043,3.366-7.845,8.405-7.845,14.011v13.443c-3.363,3.931-5.603,8.969-5.603,14.571c0,12.328,10.085,22.413,22.412,22.413
			c12.327,0,22.414-10.085,22.414-22.413c0-5.603-2.241-10.641-5.603-14.571v-4.477l69.479-44.269v48.187
			c-3.362,3.924-5.603,8.963-5.603,14.566c0,12.334,10.085,22.413,22.414,22.413c12.328,0,22.413-10.079,22.413-22.413
			c0-5.604-2.238-10.643-5.604-14.566v-48.187l69.478,44.269v3.918c-3.359,3.924-5.604,8.963-5.604,14.566
			c0,12.334,10.091,22.413,22.416,22.413c12.332,0,22.411-10.079,22.411-22.413c0-5.604-2.236-10.643-5.603-14.566V402.319z"/>
	</g>
</g>
<g>
</g>
<g>
</g>
<g>
</g>
<g>
</g>
<g>
</g>
<g>
</g>
<g>
</g>
<g>
</g>
<g>
</g>
<g>
</g>
<g>
</g>
<g>
</g>
<g>
</g>
<g>
</g>
<g>
</g>
</svg>
